<svg xmlns="http://www.w3.org/2000/svg" viewBox="0 0 512 512">
  <defs>
    <linearGradient id="grad" x1="0%" y1="0%" x2="100%" y2="100%">
      <stop offset="0%" style="stop-color:#6366f1"/>
      <stop offset="100%" style="stop-color:#4f46e5"/>
    </linearGradient>
  </defs>
  <rect width="512" height="512" rx="100" fill="#1a1a2e"/>
  <g transform="translate(96, 96)">
    <path d="M160 53 L267 53 C293 53 320 80 320 107 L320 240 C320 267 293 293 267 293 L53 293 C27 293 0 267 0 240 L0 133 C0 107 27 80 53 80 L133 80 L133 107 C133 133 147 147 160 147 L187 147 C200 147 213 133 213 107 L213 80" fill="none" stroke="url(#grad)" stroke-width="21" stroke-linecap="round" stroke-linejoin="round"/>
    <circle cx="160" cy="200" r="40" fill="url(#grad)"/>
  </g>
</svg>
